<svg width="1440" height="1024" viewBox="0 0 1440 1024" fill="none" xmlns="http://www.w3.org/2000/svg">
<path d="M125.24 901.353C102.565 901.353 84.1158 882.905 84.1158 860.233V218.119H1336.71V860.233C1336.71 882.905 1318.27 901.353 1295.59 901.353H125.24Z" fill="#FFF6EB"/>
<path d="M84.1158 218.188V177.068C84.1158 154.392 102.565 135.948 125.24 135.948H1295.59C1318.27 135.948 1336.71 154.392 1336.71 177.068V218.188H84.1158Z" fill="#E63C23"/>
<mask id="mask0_23_1710" style="mask-type:luminance" maskUnits="userSpaceOnUse" x="-232" y="-24" width="1905" height="1072">
<path d="M1672.13 -24H-232V1047.08H1672.13V-24Z" fill="black" fill-opacity="0.5"/>
</mask>
<g mask="url(#mask0_23_1710)">
<mask id="mask1_23_1710" style="mask-type:luminance" maskUnits="userSpaceOnUse" x="83" y="216" width="1255" height="686">
<path d="M1337.15 216.221H83.1517V901.62H1337.15V216.221Z" fill="white"/>
</mask>
<g mask="url(#mask1_23_1710)">
<mask id="mask2_23_1710" style="mask-type:luminance" maskUnits="userSpaceOnUse" x="84" y="217" width="1253" height="685">
<path d="M84.0342 217.323H1336.79V901.487H84.0342V217.323Z" fill="white"/>
</mask>
<g mask="url(#mask2_23_1710)">
<path d="M781.189 867.745V868.537H734.534V867.745H781.189ZM781.981 867.745V868.537H828.637V867.745H781.981ZM876.876 867.745V868.537H923.532V867.745H876.876ZM212.62 867.745V868.537H259.275V867.745H212.62ZM829.429 867.745V868.537H876.084V867.745H829.429ZM260.067 867.745V868.537H306.723V867.745H260.067ZM307.515 867.745V868.537H354.17V867.745H307.515ZM592.196 867.745V868.537H638.851V867.745H592.196ZM497.301 867.745V868.537H543.956V867.745H497.301ZM449.853 867.745V868.537H496.509V867.745H449.853ZM402.406 867.745V868.537H449.061V867.745H402.406ZM687.086 867.745V868.537H733.746V867.745H687.086ZM354.962 867.745V868.537H401.618V867.745H354.962ZM639.643 867.745V868.537H686.299V867.745H639.643ZM971.767 867.745V868.537H1018.43V867.745H971.767ZM1303.9 868.537H1335.87C1335.92 868.274 1335.97 868.007 1336.01 867.745H1303.9V868.537ZM1114.11 867.745V868.537H1160.77V867.745H1114.11ZM1161.56 867.745V868.537H1208.21V867.745H1161.56ZM1209 867.745V868.537H1255.66V867.745H1209ZM116.937 867.745H84.8176C84.8692 868.007 84.908 868.274 84.9596 868.537H116.937V867.745ZM1256.45 867.745V868.537H1303.11V867.745H1256.45ZM117.725 867.745V868.537H164.38V867.745H117.725ZM924.324 867.745V868.537H970.979V867.745H924.324ZM1019.21 867.745V868.537H1065.87V867.745H1019.21ZM544.748 867.745V868.537H591.404V867.745H544.748ZM1066.66 867.745V868.537H1113.32V867.745H1066.66ZM165.172 867.745V868.537H211.828V867.745H165.172ZM876.876 820.297V821.089H923.532V820.297H876.876ZM829.429 820.297V821.089H876.084V820.297H829.429ZM924.324 820.297V821.089H970.979V820.297H924.324ZM971.767 820.297V821.089H1018.43V820.297H971.767ZM1256.45 821.089H1303.11V820.297H1256.45V821.089ZM687.086 820.297V821.089H733.746V820.297H687.086ZM781.981 820.297V821.089H828.637V820.297H781.981ZM734.534 820.297V821.089H781.189V820.297H734.534ZM1114.11 820.297V821.089H1160.77V820.297H1114.11ZM116.937 820.297H84.116V821.089H116.937V820.297ZM1209 820.297V821.089H1255.66V820.297H1209ZM1161.56 820.297V821.089H1208.21V820.297H1161.56ZM639.643 820.297V821.089H686.299V820.297H639.643ZM1303.9 821.089H1336.71V820.297H1303.9V821.089ZM212.62 820.297V821.089H259.275V820.297H212.62ZM1019.21 820.297V821.089H1065.87V820.297H1019.21ZM1066.66 820.297V821.089H1113.32V820.297H1066.66ZM544.748 820.297V821.089H591.404V820.297H544.748ZM402.406 820.297V821.089H449.061V820.297H402.406ZM354.962 820.297V821.089H401.618V820.297H354.962ZM449.853 820.297V821.089H496.509V820.297H449.853ZM497.301 820.297V821.089H543.956V820.297H497.301ZM164.38 820.297H117.725V821.089H164.38V820.297ZM260.067 820.297V821.089H306.723V820.297H260.067ZM307.515 820.297V821.089H354.17V820.297H307.515ZM592.196 820.297V821.089H638.851V820.297H592.196ZM165.172 820.297V821.089H211.828V820.297H165.172ZM1066.66 772.854V773.642H1113.32V772.854H1066.66ZM924.324 772.854V773.642H970.979V772.854H924.324ZM687.086 772.854V773.642H733.746V772.854H687.086ZM781.981 772.854V773.642H828.637V772.854H781.981ZM1303.9 773.642H1336.71V772.854H1303.9V773.642ZM829.429 772.854V773.642H876.084V772.854H829.429ZM734.534 772.854V773.642H781.189V772.854H734.534ZM876.876 772.854V773.642H923.532V772.854H876.876ZM211.828 772.854H165.172V773.642H211.828V772.854ZM1019.21 772.854V773.642H1065.87V772.854H1019.21ZM971.767 772.854V773.642H1018.43V772.854H971.767ZM1114.11 772.854V773.642H1160.77V772.854H1114.11ZM1161.56 772.854V773.642H1208.21V772.854H1161.56ZM1256.45 773.642H1303.11V772.854H1256.45V773.642ZM260.067 772.854V773.642H306.723V772.854H260.067ZM212.62 772.854V773.642H259.275V772.854H212.62ZM402.406 772.854V773.642H449.061V772.854H402.406ZM449.853 772.854V773.642H496.509V772.854H449.853ZM164.38 772.854H117.725V773.642H164.38V772.854ZM354.962 772.854V773.642H401.618V772.854H354.962ZM307.515 772.854V773.642H354.17V772.854H307.515ZM1209 773.642H1255.66V772.854H1209V773.642ZM497.301 772.854V773.642H543.956V772.854H497.301ZM639.643 772.854V773.642H686.299V772.854H639.643ZM544.748 772.854V773.642H591.404V772.854H544.748ZM592.196 772.854V773.642H638.851V772.854H592.196ZM116.937 772.854H84.116V773.642H116.937V772.854ZM734.534 725.407V726.194H781.189V725.407H734.534ZM1066.66 725.407V726.194H1113.32V725.407H1066.66ZM781.981 725.407V726.194H828.637V725.407H781.981ZM876.876 725.407V726.194H923.532V725.407H876.876ZM1161.56 726.194H1208.21V725.407H1161.56V726.194ZM924.324 725.407V726.194H970.979V725.407H924.324ZM1019.21 725.407V726.194H1065.87V725.407H1019.21ZM971.767 725.407V726.194H1018.43V725.407H971.767ZM829.429 725.407V726.194H876.084V725.407H829.429ZM639.643 725.407V726.194H686.299V725.407H639.643ZM402.406 725.407V726.194H449.061V725.407H402.406ZM449.853 725.407V726.194H496.509V725.407H449.853ZM354.962 725.407V726.194H401.618V725.407H354.962ZM307.515 725.407V726.194H354.17V725.407H307.515ZM497.301 725.407V726.194H543.956V725.407H497.301ZM260.067 725.407V726.194H306.723V725.407H260.067ZM1303.9 726.194H1336.71V725.407H1303.9V726.194ZM1114.11 725.407V726.194H1160.77V725.407H1114.11ZM1256.45 726.194H1303.11V725.407H1256.45V726.194ZM592.196 725.407V726.194H638.851V725.407H592.196ZM259.275 725.407H212.62V726.194H259.275V725.407ZM1209 726.194H1255.66V725.407H1209V726.194ZM687.086 725.407V726.194H733.746V725.407H687.086ZM544.748 725.407V726.194H591.404V725.407H544.748ZM116.937 725.407H84.116V726.194H116.937V725.407ZM164.38 725.407H117.725V726.194H164.38V725.407ZM211.828 725.407H165.172V726.194H211.828V725.407ZM1019.21 677.959V678.751H1065.87V677.959H1019.21ZM354.962 677.959V678.751H401.618V677.959H354.962ZM1256.45 678.751H1303.11V677.959H1256.45V678.751ZM1066.66 677.959V678.751H1113.32V677.959H1066.66ZM1114.11 678.751H1160.77V677.959H1114.11V678.751ZM116.937 677.959H84.116V678.751H116.937V677.959ZM1209 678.751H1255.66V677.959H1209V678.751ZM164.38 677.959H117.725V678.751H164.38V677.959ZM211.828 677.959H165.172V678.751H211.828V677.959ZM1303.9 678.751H1336.71V677.959H1303.9V678.751ZM307.515 677.959V678.751H354.17V677.959H307.515ZM259.275 677.959H212.62V678.751H259.275V677.959ZM592.196 677.959V678.751H638.851V677.959H592.196ZM829.429 677.959V678.751H876.084V677.959H829.429ZM1161.56 678.751H1208.21V677.959H1161.56V678.751ZM544.748 677.959V678.751H591.404V677.959H544.748ZM876.876 677.959V678.751H923.532V677.959H876.876ZM497.301 677.959V678.751H543.956V677.959H497.301ZM449.853 677.959V678.751H496.509V677.959H449.853ZM781.981 677.959V678.751H828.637V677.959H781.981ZM687.086 677.959V678.751H733.746V677.959H687.086ZM639.643 677.959V678.751H686.299V677.959H639.643ZM734.534 677.959V678.751H781.189V677.959H734.534ZM971.767 677.959V678.751H1018.43V677.959H971.767ZM402.406 677.959V678.751H449.061V677.959H402.406ZM306.723 677.959H260.067V678.751H306.723V677.959ZM924.324 677.959V678.751H970.979V677.959H924.324ZM687.086 630.511V631.304H733.746V630.511H687.086ZM971.767 630.511V631.304H1018.43V630.511H971.767ZM829.429 630.511V631.304H876.084V630.511H829.429ZM924.324 630.511V631.304H970.979V630.511H924.324ZM1019.21 630.511V631.304H1065.87V630.511H1019.21ZM876.876 630.511V631.304H923.532V630.511H876.876ZM781.981 630.511V631.304H828.637V630.511H781.981ZM734.534 630.511V631.304H781.189V630.511H734.534ZM639.643 630.511V631.304H686.299V630.511H639.643ZM211.828 630.511H165.172V631.304H211.828V630.511ZM1303.9 631.304H1336.71V630.511H1303.9V631.304ZM1066.66 631.304H1113.32V630.511H1066.66V631.304ZM1209 631.304H1255.66V630.511H1209V631.304ZM116.937 630.511H84.116V631.304H116.937V630.511ZM1114.11 631.304H1160.77V630.511H1114.11V631.304ZM1161.56 631.304H1208.21V630.511H1161.56V631.304ZM259.275 630.511H212.62V631.304H259.275V630.511ZM306.723 630.511H260.067V631.304H306.723V630.511ZM402.406 630.511V631.304H449.061V630.511H402.406ZM1256.45 631.304H1303.11V630.511H1256.45V631.304ZM164.38 630.511H117.725V631.304H164.38V630.511ZM497.301 630.511V631.304H543.956V630.511H497.301ZM544.748 630.511V631.304H591.404V630.511H544.748ZM449.853 630.511V631.304H496.509V630.511H449.853ZM354.17 630.511H307.515V631.304H354.17V630.511ZM354.962 630.511V631.304H401.618V630.511H354.962ZM592.196 630.511V631.304H638.851V630.511H592.196ZM1114.11 583.856H1160.77V583.064H1114.11V583.856ZM259.275 583.064H212.62V583.856H259.275V583.064ZM1209 583.856H1255.66V583.064H1209V583.856ZM164.38 583.064H117.725V583.856H164.38V583.064ZM306.723 583.064H260.067V583.856H306.723V583.064ZM1066.66 583.856H1113.32V583.064H1066.66V583.856ZM1161.56 583.856H1208.21V583.064H1161.56V583.856ZM211.828 583.064H165.172V583.856H211.828V583.064ZM354.17 583.064H307.515V583.856H354.17V583.064ZM876.876 583.064V583.856H923.532V583.064H876.876ZM971.767 583.064V583.856H1018.43V583.064H971.767ZM449.853 583.064V583.856H496.509V583.064H449.853ZM116.937 583.064H84.116V583.856H116.937V583.064ZM1256.45 583.856H1303.11V583.064H1256.45V583.856ZM924.324 583.064V583.856H970.979V583.064H924.324ZM1019.21 583.856H1065.87V583.064H1019.21V583.856ZM687.086 583.064V583.856H733.746V583.064H687.086ZM1303.9 583.856H1336.71V583.064H1303.9V583.856ZM497.301 583.064V583.856H543.956V583.064H497.301ZM401.618 583.064H354.962V583.856H401.618V583.064ZM734.534 583.064V583.856H781.189V583.064H734.534ZM639.643 583.064V583.856H686.299V583.064H639.643ZM592.196 583.064V583.856H638.851V583.064H592.196ZM544.748 583.064V583.856H591.404V583.064H544.748ZM829.429 583.064V583.856H876.084V583.064H829.429ZM402.406 583.064V583.856H449.061V583.064H402.406ZM781.981 583.064V583.856H828.637V583.064H781.981ZM1161.56 536.408H1208.21V535.616H1161.56V536.408ZM116.937 535.616H84.116V536.408H116.937V535.616ZM1209 536.408H1255.66V535.616H1209V536.408ZM1114.11 536.408H1160.77V535.616H1114.11V536.408ZM686.299 536.408V535.616H639.643V536.408H686.299ZM449.061 536.408V535.616H402.406V536.408H449.061ZM259.275 535.616H212.62V536.408H259.275V535.616ZM638.851 536.408V535.616H592.196V536.408H638.851ZM496.509 536.408V535.616H449.853V536.408H496.509ZM591.404 536.408V535.616H544.748V536.408H591.404ZM1303.9 536.408H1336.71V535.616H1303.9V536.408ZM543.956 536.408V535.616H497.301V536.408H543.956ZM401.618 535.616H354.962V536.408H401.618V535.616ZM733.746 536.408V535.616H687.086V536.408H733.746ZM306.723 535.616H260.067V536.408H306.723V535.616ZM354.17 535.616H307.515V536.408H354.17V535.616ZM876.084 536.408V535.616H829.429V536.408H876.084ZM781.189 536.408V535.616H734.534V536.408H781.189ZM828.637 536.408V535.616H781.981V536.408H828.637ZM1019.21 536.408H1065.87V535.616H1019.21V536.408ZM923.532 536.408V535.616H876.876V536.408H923.532ZM1066.66 536.408H1113.32V535.616H1066.66V536.408ZM971.767 536.408H1018.43V535.616H971.767V536.408ZM970.979 536.408V535.616H924.324V536.408H970.979ZM164.38 535.616H117.725V536.408H164.38V535.616ZM1256.45 536.408H1303.11V535.616H1256.45V536.408ZM211.828 535.616H165.172V536.408H211.828V535.616ZM1018.43 488.961V488.169H971.767V488.961H1018.43ZM306.723 488.169H260.067V488.961H306.723V488.169ZM164.38 488.169H117.725V488.961H164.38V488.169ZM1303.9 488.961H1336.71V488.169H1303.9V488.961ZM686.299 488.961V488.169H639.643V488.961H686.299ZM354.17 488.169H307.515V488.961H354.17V488.169ZM543.956 488.961V488.169H497.301V488.961H543.956ZM733.746 488.961V488.169H687.086V488.961H733.746ZM781.189 488.961V488.169H734.534V488.961H781.189ZM259.275 488.169H212.62V488.961H259.275V488.169ZM828.637 488.961V488.169H781.981V488.961H828.637ZM1019.21 488.961H1065.87V488.169H1019.21V488.961ZM638.851 488.961V488.169H592.196V488.961H638.851ZM1256.45 488.961H1303.11V488.169H1256.45V488.961ZM876.084 488.961V488.169H829.429V488.961H876.084ZM1066.66 488.961H1113.32V488.169H1066.66V488.961ZM1114.11 488.961H1160.77V488.169H1114.11V488.961ZM1161.56 488.961H1208.21V488.169H1161.56V488.961ZM449.061 488.961V488.169H402.406V488.961H449.061ZM401.618 488.961V488.169H354.962V488.961H401.618ZM496.509 488.961V488.169H449.853V488.961H496.509ZM970.979 488.961V488.169H924.324V488.961H970.979ZM923.532 488.961V488.169H876.876V488.961H923.532ZM211.828 488.169H165.172V488.961H211.828V488.169ZM116.937 488.169H84.116V488.961H116.937V488.169ZM1209 488.961H1255.66V488.169H1209V488.961ZM591.404 488.961V488.169H544.748V488.961H591.404ZM923.532 441.513V440.721H876.876V441.513H923.532ZM970.979 441.513V440.721H924.324V441.513H970.979ZM876.084 441.513V440.721H829.429V441.513H876.084ZM1209 441.513H1255.66V440.721H1209V441.513ZM259.275 440.721H212.62V441.513H259.275V440.721ZM781.189 441.513V440.721H734.534V441.513H781.189ZM828.637 441.513V440.721H781.981V441.513H828.637ZM1018.43 441.513V440.721H971.767V441.513H1018.43ZM733.746 441.513V440.721H687.086V441.513H733.746ZM686.299 441.513V440.721H639.643V441.513H686.299ZM1065.87 441.513V440.721H1019.21V441.513H1065.87ZM306.723 440.721H260.067V441.513H306.723V440.721ZM1066.66 441.513H1113.32V440.721H1066.66V441.513ZM543.956 441.513V440.721H497.301V441.513H543.956ZM638.851 441.513V440.721H592.196V441.513H638.851ZM591.404 441.513V440.721H544.748V441.513H591.404ZM1161.56 441.513H1208.21V440.721H1161.56V441.513ZM401.618 441.513V440.721H354.962V441.513H401.618ZM211.828 440.721H165.172V441.513H211.828V440.721ZM1256.45 441.513H1303.11V440.721H1256.45V441.513ZM116.937 440.721H84.116V441.513H116.937V440.721ZM164.38 440.721H117.725V441.513H164.38V440.721ZM354.17 441.513V440.721H307.515V441.513H354.17ZM1303.9 441.513H1336.71V440.726H1303.9V441.513ZM496.509 441.513V440.721H449.853V441.513H496.509ZM1114.11 441.513H1160.77V440.721H1114.11V441.513ZM449.061 441.513V440.721H402.406V441.513H449.061ZM1018.43 394.066V393.274H971.767V394.066H1018.43ZM1065.87 394.066V393.274H1019.21V394.066H1065.87ZM1113.32 394.066V393.274H1066.66V394.066H1113.32ZM306.723 394.066V393.274H260.067V394.066H306.723ZM211.828 393.274H165.172V394.066H211.828V393.274ZM591.404 394.066V393.274H544.748V394.066H591.404ZM543.956 394.066V393.274H497.301V394.066H543.956ZM449.061 394.066V393.274H402.406V394.066H449.061ZM1209 394.066H1255.66V393.274H1209V394.066ZM970.979 394.066V393.274H924.324V394.066H970.979ZM1161.56 394.066H1208.21V393.274H1161.56V394.066ZM923.532 394.066V393.274H876.876V394.066H923.532ZM496.509 394.066V393.274H449.853V394.066H496.509ZM733.746 394.066V393.274H687.086V394.066H733.746ZM828.637 394.066V393.274H781.981V394.066H828.637ZM1114.11 394.066H1160.77V393.274H1114.11V394.066ZM1303.9 394.07H1336.71V393.278H1303.9V394.07ZM116.937 393.274H84.116V394.066H116.937V393.274ZM781.189 394.066V393.274H734.534V394.066H781.189ZM259.275 393.274H212.62V394.066H259.275V393.274ZM686.299 394.066V393.274H639.643V394.066H686.299ZM164.38 393.274H117.725V394.066H164.38V393.274ZM1256.45 394.066H1303.11V393.274H1256.45V394.066ZM638.851 394.066V393.274H592.196V394.066H638.851ZM401.618 394.066V393.274H354.962V394.066H401.618ZM876.084 394.066V393.274H829.429V394.066H876.084ZM354.17 394.066V393.274H307.515V394.066H354.17ZM449.061 346.618V345.831H402.406V346.618H449.061ZM496.509 346.618V345.831H449.853V346.618H496.509ZM591.404 346.618V345.831H544.748V346.618H591.404ZM543.956 346.618V345.831H497.301V346.618H543.956ZM259.275 346.618V345.831H212.62V346.618H259.275ZM164.38 345.831H117.725V346.618H164.38V345.831ZM638.851 346.618V345.831H592.196V346.618H638.851ZM401.618 346.618V345.831H354.962V346.618H401.618ZM1256.45 346.618H1303.11V345.831H1256.45V346.618ZM306.723 346.618V345.831H260.067V346.618H306.723ZM354.17 346.618V345.831H307.515V346.618H354.17ZM876.084 346.618V345.831H829.429V346.618H876.084ZM686.299 346.618V345.831H639.643V346.618H686.299ZM116.937 345.831H84.116V346.618H116.937V345.831ZM211.828 345.831H165.172V346.618H211.828V345.831ZM1065.87 346.618V345.831H1019.21V346.618H1065.87ZM1113.32 346.618V345.831H1066.66V346.618H1113.32ZM1303.9 346.623H1336.71V345.831H1303.9V346.623ZM1161.56 346.618H1208.21V345.831H1161.56V346.618ZM1209 346.618H1255.66V345.831H1209V346.618ZM1160.77 346.618V345.831H1114.11V346.618H1160.77ZM828.637 346.618V345.831H781.981V346.618H828.637ZM781.189 346.618V345.831H734.534V346.618H781.189ZM733.746 346.618V345.831H687.086V346.618H733.746ZM1018.43 346.618V345.831H971.767V346.618H1018.43ZM923.532 346.618V345.831H876.876V346.618H923.532ZM970.979 346.618V345.831H924.324V346.618H970.979ZM828.637 299.171V298.383H781.981V299.171H828.637ZM1208.21 299.171V298.383H1161.56V299.171H1208.21ZM1018.43 299.171V298.383H971.767V299.171H1018.43ZM970.979 299.171V298.383H924.324V299.171H970.979ZM923.532 299.171V298.383H876.876V299.171H923.532ZM1113.32 299.171V298.383H1066.66V299.171H1113.32ZM1160.77 299.171V298.383H1114.11V299.171H1160.77ZM1065.87 299.171V298.383H1019.21V299.171H1065.87ZM876.084 299.171V298.383H829.429V299.171H876.084ZM781.189 299.171V298.383H734.534V299.171H781.189ZM733.746 299.171V298.383H687.086V299.171H733.746ZM211.828 299.171V298.383H165.172V299.171H211.828ZM259.275 299.171V298.383H212.62V299.171H259.275ZM354.17 299.171V298.383H307.515V299.171H354.17ZM1303.9 299.175H1336.71V298.383H1303.9V299.175ZM1209 299.171H1255.66V298.383H1209V299.171ZM401.618 299.171V298.383H354.962V299.171H401.618ZM116.937 298.383H84.116V299.171H116.937V298.383ZM306.723 299.171V298.383H260.067V299.171H306.723ZM1256.45 299.171H1303.11V298.383H1256.45V299.171ZM449.061 299.171V298.383H402.406V299.171H449.061ZM591.404 299.171V298.383H544.748V299.171H591.404ZM686.299 299.171V298.383H639.643V299.171H686.299ZM638.851 299.171V298.383H592.196V299.171H638.851ZM543.956 299.171V298.383H497.301V299.171H543.956ZM496.509 299.171V298.383H449.853V299.171H496.509ZM164.38 298.383H117.725V299.171H164.38V298.383ZM1303.9 251.728H1336.71V250.936H1303.9V251.728ZM1256.45 251.728H1303.11V250.936H1256.45V251.728ZM116.937 250.936H84.116V251.728H116.937V250.936ZM1160.77 251.728V250.936H1114.11V251.728H1160.77ZM496.509 251.728V250.936H449.853V251.728H496.509ZM164.38 251.728V250.936H117.725V251.728H164.38ZM591.404 251.728V250.936H544.748V251.728H591.404ZM686.299 251.728V250.936H639.643V251.728H686.299ZM733.746 251.728V250.936H687.086V251.728H733.746ZM638.851 251.728V250.936H592.196V251.728H638.851ZM259.275 251.728V250.936H212.62V251.728H259.275ZM449.061 251.728V250.936H402.406V251.728H449.061ZM211.828 251.728V250.936H165.172V251.728H211.828ZM401.618 251.728V250.936H354.962V251.728H401.618ZM306.723 251.728V250.936H260.067V251.728H306.723ZM543.956 251.728V250.936H497.301V251.728H543.956ZM1065.87 251.728V250.936H1019.21V251.728H1065.87ZM1113.32 251.728V250.936H1066.66V251.728H1113.32ZM1018.43 251.728V250.936H971.767V251.728H1018.43ZM781.189 251.728V250.936H734.534V251.728H781.189ZM1255.66 251.728V250.936H1209V251.728H1255.66ZM1208.21 251.728V250.936H1161.56V251.728H1208.21ZM876.084 251.728V250.936H829.429V251.728H876.084ZM828.637 251.728V250.936H781.981V251.728H828.637ZM970.979 251.728V250.936H924.324V251.728H970.979ZM923.532 251.728V250.936H876.876V251.728H923.532ZM354.17 251.728V250.936H307.515V251.728H354.17ZM117.725 394.066H116.937V440.721H117.725V394.066ZM117.725 250.936V218.119H116.937V250.936H117.725ZM117.725 441.513H116.937V488.169H117.725V441.513ZM117.725 773.642H116.937V820.297H117.725V773.642ZM117.725 251.728H116.937V298.383H117.725V251.728ZM117.725 299.171H116.937V345.831H117.725V299.171ZM117.725 346.618H116.937V393.274H117.725V346.618ZM117.725 488.961H116.937V535.616H117.725V488.961ZM116.937 868.537V900.51C117.195 900.562 117.462 900.605 117.725 900.652V868.537H116.937ZM117.725 821.089H116.937V867.745H117.725V821.089ZM117.725 536.408H116.937V583.064H117.725V536.408ZM117.725 631.304H116.937V677.959H117.725V631.304ZM117.725 678.751H116.937V725.407H117.725V678.751ZM117.725 583.856H116.937V630.511H117.725V583.856ZM117.725 726.194H116.937V772.854H117.725V726.194ZM116.937 867.745V868.537H117.725V867.745H116.937ZM117.725 820.297H116.937V821.089H117.725V820.297ZM117.725 772.854H116.937V773.642H117.725V772.854ZM117.725 725.407H116.937V726.194H117.725V725.407ZM117.725 677.959H116.937V678.751H117.725V677.959ZM117.725 630.511H116.937V631.304H117.725V630.511ZM117.725 583.064H116.937V583.856H117.725V583.064ZM117.725 535.616H116.937V536.408H117.725V535.616ZM117.725 488.169H116.937V488.961H117.725V488.169ZM117.725 440.721H116.937V441.513H117.725V440.721ZM117.725 393.274H116.937V394.066H117.725V393.274ZM117.725 345.831H116.937V346.618H117.725V345.831ZM117.725 298.383H116.937V299.171H117.725V298.383ZM117.725 250.936H116.937V251.728H117.725V250.936ZM165.172 488.961H164.38V535.616H165.172V488.961ZM165.172 441.513H164.38V488.169H165.172V441.513ZM165.172 583.856H164.38V630.511H165.172V583.856ZM165.172 678.751H164.38V725.407H165.172V678.751ZM165.172 726.194H164.38V772.854H165.172V726.194ZM165.172 631.304H164.38V677.959H165.172V631.304ZM164.38 868.537V901.354H165.172V868.537H164.38ZM165.172 394.066H164.38V440.721H165.172V394.066ZM165.172 536.408H164.38V583.064H165.172V536.408ZM165.172 773.642H164.38V820.297H165.172V773.642ZM165.172 250.936V218.119H164.38V250.936H165.172ZM164.38 821.089V867.745H165.172V821.089H164.38ZM165.172 299.171H164.38V345.831H165.172V299.171ZM165.172 298.383V251.728H164.38V298.383H165.172ZM165.172 346.618H164.38V393.274H165.172V346.618ZM164.38 867.745V868.537H165.172V867.745H164.38ZM164.38 820.297V821.089H165.172V820.297H164.38ZM165.172 772.854H164.38V773.642H165.172V772.854ZM165.172 725.407H164.38V726.194H165.172V725.407ZM165.172 677.959H164.38V678.751H165.172V677.959ZM165.172 630.511H164.38V631.304H165.172V630.511ZM165.172 583.064H164.38V583.856H165.172V583.064ZM165.172 535.616H164.38V536.408H165.172V535.616ZM165.172 488.169H164.38V488.961H165.172V488.169ZM165.172 440.721H164.38V441.513H165.172V440.721ZM165.172 393.274H164.38V394.066H165.172V393.274ZM165.172 345.831H164.38V346.618H165.172V345.831ZM165.172 298.383H164.38V299.171H165.172V298.383ZM165.172 251.728V250.936H164.38V251.728H165.172ZM212.62 346.618H211.828V393.274H212.62V346.618ZM212.62 394.066H211.828V440.721H212.62V394.066ZM211.828 773.642V820.297H212.62V773.642H211.828ZM212.62 441.513H211.828V488.169H212.62V441.513ZM212.62 298.383V251.728H211.828V298.383H212.62ZM212.62 726.194H211.828V772.854H212.62V726.194ZM211.828 868.537V901.354H212.62V868.537H211.828ZM212.62 345.831V299.171H211.828V345.831H212.62ZM211.828 821.089V867.745H212.62V821.089H211.828ZM212.62 250.936V218.119H211.828V250.936H212.62ZM212.62 631.304H211.828V677.959H212.62V631.304ZM212.62 678.751H211.828V725.407H212.62V678.751ZM212.62 583.856H211.828V630.511H212.62V583.856ZM212.62 536.408H211.828V583.064H212.62V536.408ZM212.62 488.961H211.828V535.616H212.62V488.961ZM211.828 867.745V868.537H212.62V867.745H211.828ZM211.828 820.297V821.089H212.62V820.297H211.828ZM211.828 772.854V773.642H212.62V772.854H211.828ZM212.62 725.407H211.828V726.194H212.62V725.407ZM212.62 677.959H211.828V678.751H212.62V677.959ZM212.62 630.511H211.828V631.304H212.62V630.511ZM212.62 583.064H211.828V583.856H212.62V583.064ZM212.62 535.616H211.828V536.408H212.62V535.616ZM212.62 488.169H211.828V488.961H212.62V488.169ZM212.62 440.721H211.828V441.513H212.62V440.721ZM212.62 393.274H211.828V394.066H212.62V393.274ZM212.62 345.831H211.828V346.618H212.62V345.831ZM212.62 299.171V298.383H211.828V299.171H212.62ZM212.62 251.728V250.936H211.828V251.728H212.62ZM260.067 536.408H259.275V583.064H260.067V536.408ZM260.067 488.961H259.275V535.616H260.067V488.961ZM260.067 394.066H259.275V440.721H260.067V394.066ZM260.067 441.513H259.275V488.169H260.067V441.513ZM259.275 821.089V867.745H260.067V821.089H259.275ZM260.067 393.274V346.618H259.275V393.274H260.067ZM260.067 583.856H259.275V630.511H260.067V583.856ZM260.067 298.383V251.728H259.275V298.383H260.067ZM259.275 726.194V772.854H260.067V726.194H259.275ZM260.067 678.751H259.275V725.407H260.067V678.751ZM260.067 631.304H259.275V677.959H260.067V631.304ZM260.067 250.936V218.119H259.275V250.936H260.067ZM259.275 773.642V820.297H260.067V773.642H259.275ZM259.275 868.537V901.354H260.067V868.537H259.275ZM260.067 345.831V299.171H259.275V345.831H260.067ZM259.275 867.745V868.537H260.067V867.745H259.275ZM259.275 820.297V821.089H260.067V820.297H259.275ZM259.275 772.854V773.642H260.067V772.854H259.275ZM259.275 725.407V726.194H260.067V725.407H259.275ZM260.067 677.959H259.275V678.751H260.067V677.959ZM260.067 630.511H259.275V631.304H260.067V630.511ZM260.067 583.064H259.275V583.856H260.067V583.064ZM260.067 535.616H259.275V536.408H260.067V535.616ZM260.067 488.169H259.275V488.961H260.067V488.169ZM260.067 440.721H259.275V441.513H260.067V440.721ZM260.067 393.274H259.275V394.066H260.067V393.274ZM260.067 346.618V345.831H259.275V346.618H260.067ZM260.067 299.171V298.383H259.275V299.171H260.067ZM260.067 251.728V250.936H259.275V251.728H260.067ZM307.515 298.383V251.728H306.723V298.383H307.515ZM307.515 345.831V299.171H306.723V345.831H307.515ZM306.723 821.089V867.745H307.515V821.089H306.723ZM306.723 726.194V772.854H307.515V726.194H306.723ZM306.723 678.751V725.407H307.515V678.751H306.723ZM307.515 440.721V394.066H306.723V440.721H307.515ZM307.515 583.856H306.723V630.511H307.515V583.856ZM307.515 441.513H306.723V488.169H307.515V441.513ZM306.723 773.642V820.297H307.515V773.642H306.723ZM307.515 631.304H306.723V677.959H307.515V631.304ZM307.515 488.961H306.723V535.616H307.515V488.961ZM307.515 536.408H306.723V583.064H307.515V536.408ZM307.515 250.936V218.119H306.723V250.936H307.515ZM307.515 393.274V346.618H306.723V393.274H307.515ZM306.723 868.537V901.354H307.515V868.537H306.723ZM306.723 867.745V868.537H307.515V867.745H306.723ZM306.723 820.297V821.089H307.515V820.297H306.723ZM306.723 772.854V773.642H307.515V772.854H306.723ZM306.723 725.407V726.194H307.515V725.407H306.723ZM306.723 677.959V678.751H307.515V677.959H306.723ZM307.515 630.511H306.723V631.304H307.515V630.511ZM307.515 583.064H306.723V583.856H307.515V583.064ZM307.515 535.616H306.723V536.408H307.515V535.616ZM307.515 488.169H306.723V488.961H307.515V488.169ZM307.515 440.721H306.723V441.513H307.515V440.721ZM307.515 394.066V393.274H306.723V394.066H307.515ZM307.515 346.618V345.831H306.723V346.618H307.515ZM307.515 299.171V298.383H306.723V299.171H307.515ZM307.515 251.728V250.936H306.723V251.728H307.515ZM354.962 440.721V394.066H354.17V440.721H354.962ZM354.17 726.194V772.854H354.962V726.194H354.17ZM354.962 488.961H354.17V535.616H354.962V488.961ZM354.962 345.831V299.171H354.17V345.831H354.962ZM354.962 488.169V441.513H354.17V488.169H354.962ZM354.17 773.642V820.297H354.962V773.642H354.17ZM354.17 678.751V725.407H354.962V678.751H354.17ZM354.962 250.936V218.119H354.17V250.936H354.962ZM354.17 631.304V677.959H354.962V631.304H354.17ZM354.17 868.537V901.354H354.962V868.537H354.17ZM354.962 393.274V346.618H354.17V393.274H354.962ZM354.962 583.856H354.17V630.511H354.962V583.856ZM354.962 536.408H354.17V583.064H354.962V536.408ZM354.17 821.089V867.745H354.962V821.089H354.17ZM354.962 298.383V251.728H354.17V298.383H354.962ZM354.17 867.745V868.537H354.962V867.745H354.17ZM354.17 820.297V821.089H354.962V820.297H354.17ZM354.17 772.854V773.642H354.962V772.854H354.17ZM354.17 725.407V726.194H354.962V725.407H354.17ZM354.17 677.959V678.751H354.962V677.959H354.17ZM354.17 630.511V631.304H354.962V630.511H354.17ZM354.962 583.064H354.17V583.856H354.962V583.064ZM354.962 535.616H354.17V536.408H354.962V535.616ZM354.962 488.169H354.17V488.961H354.962V488.169ZM354.962 441.513V440.721H354.17V441.513H354.962ZM354.962 394.066V393.274H354.17V394.066H354.962ZM354.962 346.618V345.831H354.17V346.618H354.962ZM354.962 299.171V298.383H354.17V299.171H354.962ZM354.962 251.728V250.936H354.17V251.728H354.962ZM401.618 821.089V867.745H402.406V821.089H401.618ZM401.618 726.194V772.854H402.406V726.194H401.618ZM402.406 393.274V346.618H401.618V393.274H402.406ZM402.406 250.936V218.119H401.618V250.936H402.406ZM401.618 868.537V901.354H402.406V868.537H401.618ZM401.618 678.751V725.407H402.406V678.751H401.618ZM401.618 631.304V677.959H402.406V631.304H401.618ZM401.618 773.642V820.297H402.406V773.642H401.618ZM402.406 536.408H401.618V583.064H402.406V536.408ZM402.406 345.831V299.171H401.618V345.831H402.406ZM402.406 298.383V251.728H401.618V298.383H402.406ZM401.618 583.856V630.511H402.406V583.856H401.618ZM402.406 488.169V441.513H401.618V488.169H402.406ZM402.406 535.616V488.961H401.618V535.616H402.406ZM402.406 440.721V394.066H401.618V440.721H402.406ZM401.618 867.745V868.537H402.406V867.745H401.618ZM401.618 820.297V821.089H402.406V820.297H401.618ZM401.618 772.854V773.642H402.406V772.854H401.618ZM401.618 725.407V726.194H402.406V725.407H401.618ZM401.618 677.959V678.751H402.406V677.959H401.618ZM401.618 630.511V631.304H402.406V630.511H401.618ZM401.618 583.064V583.856H402.406V583.064H401.618ZM402.406 535.616H401.618V536.408H402.406V535.616ZM402.406 488.961V488.169H401.618V488.961H402.406ZM402.406 441.513V440.721H401.618V441.513H402.406ZM402.406 394.066V393.274H401.618V394.066H402.406ZM402.406 346.618V345.831H401.618V346.618H402.406ZM402.406 299.171V298.383H401.618V299.171H402.406ZM402.406 251.728V250.936H401.618V251.728H402.406ZM449.853 488.169V441.513H449.061V488.169H449.853ZM449.853 298.383V251.728H449.061V298.383H449.853ZM449.853 345.831V299.171H449.061V345.831H449.853ZM449.061 868.537V901.354H449.853V868.537H449.061ZM449.061 726.194V772.854H449.853V726.194H449.061ZM449.853 250.936V218.119H449.061V250.936H449.853ZM449.853 440.721V394.066H449.061V440.721H449.853ZM449.853 393.274V346.618H449.061V393.274H449.853ZM449.061 821.089V867.745H449.853V821.089H449.061ZM449.061 583.856V630.511H449.853V583.856H449.061ZM449.061 536.408V583.064H449.853V536.408H449.061ZM449.853 535.616V488.961H449.061V535.616H449.853ZM449.061 631.304V677.959H449.853V631.304H449.061ZM449.061 678.751V725.407H449.853V678.751H449.061ZM449.061 773.642V820.297H449.853V773.642H449.061ZM449.061 867.745V868.537H449.853V867.745H449.061ZM449.061 820.297V821.089H449.853V820.297H449.061ZM449.061 772.854V773.642H449.853V772.854H449.061ZM449.061 725.407V726.194H449.853V725.407H449.061ZM449.061 677.959V678.751H449.853V677.959H449.061ZM449.061 630.511V631.304H449.853V630.511H449.061ZM449.061 583.064V583.856H449.853V583.064H449.061ZM449.853 536.408V535.616H449.061V536.408H449.853ZM449.853 488.961V488.169H449.061V488.961H449.853ZM449.853 441.513V440.721H449.061V441.513H449.853ZM449.853 394.066V393.274H449.061V394.066H449.853ZM449.853 346.618V345.831H449.061V346.618H449.853ZM449.853 299.171V298.383H449.061V299.171H449.853ZM449.853 251.728V250.936H449.061V251.728H449.853ZM497.301 440.721V394.066H496.509V440.721H497.301ZM496.509 536.408V583.064H497.301V536.408H496.509ZM497.301 298.383V251.728H496.509V298.383H497.301ZM496.509 583.856V630.511H497.301V583.856H496.509ZM496.509 678.751V725.407H497.301V678.751H496.509ZM496.509 868.537V901.354H497.301V868.537H496.509ZM496.509 773.642V820.297H497.301V773.642H496.509ZM496.509 726.194V772.854H497.301V726.194H496.509ZM497.301 535.616V488.961H496.509V535.616H497.301ZM497.301 345.831V299.171H496.509V345.831H497.301ZM497.301 393.274V346.618H496.509V393.274H497.301ZM497.301 250.936V218.119H496.509V250.936H497.301ZM497.301 488.169V441.513H496.509V488.169H497.301ZM496.509 821.089V867.745H497.301V821.089H496.509ZM496.509 631.304V677.959H497.301V631.304H496.509ZM496.509 867.745V868.537H497.301V867.745H496.509ZM496.509 820.297V821.089H497.301V820.297H496.509ZM496.509 772.854V773.642H497.301V772.854H496.509ZM496.509 725.407V726.194H497.301V725.407H496.509ZM496.509 677.959V678.751H497.301V677.959H496.509ZM496.509 630.511V631.304H497.301V630.511H496.509ZM496.509 583.064V583.856H497.301V583.064H496.509ZM497.301 536.408V535.616H496.509V536.408H497.301ZM497.301 488.961V488.169H496.509V488.961H497.301ZM497.301 441.513V440.721H496.509V441.513H497.301ZM497.301 394.066V393.274H496.509V394.066H497.301ZM497.301 346.618V345.831H496.509V346.618H497.301ZM497.301 299.171V298.383H496.509V299.171H497.301ZM497.301 251.728V250.936H496.509V251.728H497.301ZM543.956 536.408V583.064H544.748V536.408H543.956ZM544.748 440.721V394.066H543.956V440.721H544.748ZM544.748 535.616V488.961H543.956V535.616H544.748ZM544.748 345.831V299.171H543.956V345.831H544.748ZM544.748 488.169V441.513H543.956V488.169H544.748ZM544.748 250.936V218.119H543.956V250.936H544.748ZM543.956 773.642V820.297H544.748V773.642H543.956ZM543.956 631.304V677.959H544.748V631.304H543.956ZM543.956 868.537V901.354H544.748V868.537H543.956ZM543.956 726.194V772.854H544.748V726.194H543.956ZM544.748 393.274V346.618H543.956V393.274H544.748ZM543.956 821.089V867.745H544.748V821.089H543.956ZM544.748 298.383V251.728H543.956V298.383H544.748ZM543.956 583.856V630.511H544.748V583.856H543.956ZM543.956 678.751V725.407H544.748V678.751H543.956ZM543.956 867.745V868.537H544.748V867.745H543.956ZM543.956 820.297V821.089H544.748V820.297H543.956ZM543.956 772.854V773.642H544.748V772.854H543.956ZM543.956 725.407V726.194H544.748V725.407H543.956ZM543.956 677.959V678.751H544.748V677.959H543.956ZM543.956 630.511V631.304H544.748V630.511H543.956ZM543.956 583.064V583.856H544.748V583.064H543.956ZM544.748 536.408V535.616H543.956V536.408H544.748ZM544.748 488.961V488.169H543.956V488.961H544.748ZM544.748 441.513V440.721H543.956V441.513H544.748ZM544.748 394.066V393.274H543.956V394.066H544.748ZM544.748 346.618V345.831H543.956V346.618H544.748ZM544.748 299.171V298.383H543.956V299.171H544.748ZM544.748 251.728V250.936H543.956V251.728H544.748ZM591.404 583.856V630.511H592.196V583.856H591.404ZM592.196 535.616V488.961H591.404V535.616H592.196ZM592.196 345.831V299.171H591.404V345.831H592.196ZM591.404 821.089V867.745H592.196V821.089H591.404ZM592.196 298.383V251.728H591.404V298.383H592.196ZM591.404 536.408V583.064H592.196V536.408H591.404ZM591.404 773.642V820.297H592.196V773.642H591.404ZM591.404 726.194V772.854H592.196V726.194H591.404ZM592.196 393.274V346.618H591.404V393.274H592.196ZM591.404 631.304V677.959H592.196V631.304H591.404ZM592.196 440.721V394.066H591.404V440.721H592.196ZM592.196 488.169V441.513H591.404V488.169H592.196ZM592.196 250.936V218.119H591.404V250.936H592.196ZM591.404 678.751V725.407H592.196V678.751H591.404ZM591.404 868.537V901.354H592.196V868.537H591.404ZM591.404 867.745V868.537H592.196V867.745H591.404ZM591.404 820.297V821.089H592.196V820.297H591.404ZM591.404 772.854V773.642H592.196V772.854H591.404ZM591.404 725.407V726.194H592.196V725.407H591.404ZM591.404 677.959V678.751H592.196V677.959H591.404ZM591.404 630.511V631.304H592.196V630.511H591.404ZM591.404 583.064V583.856H592.196V583.064H591.404ZM592.196 536.408V535.616H591.404V536.408H592.196ZM592.196 488.961V488.169H591.404V488.961H592.196ZM592.196 441.513V440.721H591.404V441.513H592.196ZM592.196 394.066V393.274H591.404V394.066H592.196ZM592.196 346.618V345.831H591.404V346.618H592.196ZM592.196 299.171V298.383H591.404V299.171H592.196ZM592.196 251.728V250.936H591.404V251.728H592.196ZM638.851 536.408V583.064H639.643V536.408H638.851ZM638.851 868.537V901.354H639.643V868.537H638.851ZM638.851 726.194V772.854H639.643V726.194H638.851ZM638.851 821.089V867.745H639.643V821.089H638.851ZM638.851 583.856V630.511H639.643V583.856H638.851ZM638.851 678.751V725.407H639.643V678.751H638.851ZM639.643 393.274V346.618H638.851V393.274H639.643ZM638.851 631.304V677.959H639.643V631.304H638.851ZM639.643 440.721V394.066H638.851V440.721H639.643ZM639.643 535.616V488.961H638.851V535.616H639.643ZM639.643 250.936V218.119H638.851V250.936H639.643ZM639.643 345.831V299.171H638.851V345.831H639.643ZM639.643 298.383V251.728H638.851V298.383H639.643ZM639.643 488.169V441.513H638.851V488.169H639.643ZM638.851 773.642V820.297H639.643V773.642H638.851ZM638.851 867.745V868.537H639.643V867.745H638.851ZM638.851 820.297V821.089H639.643V820.297H638.851ZM638.851 772.854V773.642H639.643V772.854H638.851ZM638.851 725.407V726.194H639.643V725.407H638.851ZM638.851 677.959V678.751H639.643V677.959H638.851ZM638.851 630.511V631.304H639.643V630.511H638.851ZM638.851 583.064V583.856H639.643V583.064H638.851ZM639.643 536.408V535.616H638.851V536.408H639.643ZM639.643 488.961V488.169H638.851V488.961H639.643ZM639.643 441.513V440.721H638.851V441.513H639.643ZM639.643 394.066V393.274H638.851V394.066H639.643ZM639.643 346.618V345.831H638.851V346.618H639.643ZM639.643 299.171V298.383H638.851V299.171H639.643ZM639.643 251.728V250.936H638.851V251.728H639.643ZM687.086 488.169V441.513H686.299V488.169H687.086ZM687.086 298.383V251.728H686.299V298.383H687.086ZM687.086 440.721V394.066H686.299V440.721H687.086ZM686.299 821.089V867.745H687.086V821.089H686.299ZM686.299 773.642V820.297H687.086V773.642H686.299ZM686.299 868.537V901.354H687.086V868.537H686.299ZM687.086 250.936V218.119H686.299V250.936H687.086ZM686.299 678.751V725.407H687.086V678.751H686.299ZM687.086 393.274V346.618H686.299V393.274H687.086ZM686.299 536.408V583.064H687.086V536.408H686.299ZM687.086 345.831V299.171H686.299V345.831H687.086ZM686.299 726.194V772.854H687.086V726.194H686.299ZM686.299 631.304V677.959H687.086V631.304H686.299ZM687.086 535.616V488.961H686.299V535.616H687.086ZM686.299 583.856V630.511H687.086V583.856H686.299ZM686.299 867.745V868.537H687.086V867.745H686.299ZM686.299 820.297V821.089H687.086V820.297H686.299ZM686.299 772.854V773.642H687.086V772.854H686.299ZM686.299 725.407V726.194H687.086V725.407H686.299ZM686.299 677.959V678.751H687.086V677.959H686.299ZM686.299 630.511V631.304H687.086V630.511H686.299ZM686.299 583.064V583.856H687.086V583.064H686.299ZM687.086 536.408V535.616H686.299V536.408H687.086ZM687.086 488.961V488.169H686.299V488.961H687.086ZM687.086 441.513V440.721H686.299V441.513H687.086ZM687.086 394.066V393.274H686.299V394.066H687.086ZM687.086 346.618V345.831H686.299V346.618H687.086ZM687.086 299.171V298.383H686.299V299.171H687.086ZM687.086 251.728V250.936H686.299V251.728H687.086ZM734.534 345.831V299.171H733.746V345.831H734.534ZM734.534 298.383V251.728H733.746V298.383H734.534ZM734.534 488.169V441.513H733.746V488.169H734.534ZM733.746 631.304V677.959H734.534V631.304H733.746ZM733.746 821.089V867.745H734.534V821.089H733.746ZM734.534 250.936V218.119H733.746V250.936H734.534ZM734.534 535.616V488.961H733.746V535.616H734.534ZM733.746 868.537V901.354H734.534V868.537H733.746ZM733.746 536.408V583.064H734.534V536.408H733.746ZM734.534 393.274V346.618H733.746V393.274H734.534ZM733.746 773.642V820.297H734.534V773.642H733.746ZM733.746 678.751V725.407H734.534V678.751H733.746ZM733.746 583.856V630.511H734.534V583.856H733.746ZM734.534 440.721V394.066H733.746V440.721H734.534ZM733.746 726.194V772.854H734.534V726.194H733.746ZM733.746 867.745V868.537H734.534V867.745H733.746ZM733.746 820.297V821.089H734.534V820.297H733.746ZM733.746 772.854V773.642H734.534V772.854H733.746ZM733.746 725.407V726.194H734.534V725.407H733.746ZM733.746 677.959V678.751H734.534V677.959H733.746ZM733.746 630.511V631.304H734.534V630.511H733.746ZM733.746 583.064V583.856H734.534V583.064H733.746ZM734.534 536.408V535.616H733.746V536.408H734.534ZM734.534 488.961V488.169H733.746V488.961H734.534ZM734.534 441.513V440.721H733.746V441.513H734.534ZM734.534 394.066V393.274H733.746V394.066H734.534ZM734.534 346.618V345.831H733.746V346.618H734.534ZM734.534 299.171V298.383H733.746V299.171H734.534ZM734.534 251.728V250.936H733.746V251.728H734.534ZM781.189 536.408V583.064H781.981V536.408H781.189ZM781.981 345.831V299.171H781.189V345.831H781.981ZM781.189 821.089V867.745H781.981V821.089H781.189ZM781.981 298.383V251.728H781.189V298.383H781.981ZM781.189 631.304V677.959H781.981V631.304H781.189ZM781.189 583.856V630.511H781.981V583.856H781.189ZM781.189 868.537V901.354H781.981V868.537H781.189ZM781.981 250.936V218.119H781.189V250.936H781.981ZM781.189 773.642V820.297H781.981V773.642H781.189ZM781.981 535.616V488.961H781.189V535.616H781.981ZM781.981 488.169V441.513H781.189V488.169H781.981ZM781.981 440.721V394.066H781.189V440.721H781.981ZM781.189 726.194V772.854H781.981V726.194H781.189ZM781.189 678.751V725.407H781.981V678.751H781.189ZM781.981 393.274V346.618H781.189V393.274H781.981ZM781.189 867.745V868.537H781.981V867.745H781.189ZM781.189 820.297V821.089H781.981V820.297H781.189ZM781.189 772.854V773.642H781.981V772.854H781.189ZM781.189 725.407V726.194H781.981V725.407H781.189ZM781.189 677.959V678.751H781.981V677.959H781.189ZM781.189 630.511V631.304H781.981V630.511H781.189ZM781.189 583.064V583.856H781.981V583.064H781.189ZM781.981 536.408V535.616H781.189V536.408H781.981ZM781.981 488.961V488.169H781.189V488.961H781.981ZM781.981 441.513V440.721H781.189V441.513H781.981ZM781.981 394.066V393.274H781.189V394.066H781.981ZM781.981 346.618V345.831H781.189V346.618H781.981ZM781.981 299.171V298.383H781.189V299.171H781.981ZM781.981 251.728V250.936H781.189V251.728H781.981ZM828.637 821.089V867.745H829.429V821.089H828.637ZM829.429 440.721V394.066H828.637V440.721H829.429ZM828.637 631.304V677.959H829.429V631.304H828.637ZM829.429 488.169V441.513H828.637V488.169H829.429ZM829.429 298.383V251.728H828.637V298.383H829.429ZM829.429 535.616V488.961H828.637V535.616H829.429ZM829.429 393.274V346.618H828.637V393.274H829.429ZM828.637 868.537V901.354H829.429V868.537H828.637ZM829.429 345.831V299.171H828.637V345.831H829.429ZM828.637 773.642V820.297H829.429V773.642H828.637ZM828.637 678.751V725.407H829.429V678.751H828.637ZM828.637 536.408V583.064H829.429V536.408H828.637ZM828.637 583.856V630.511H829.429V583.856H828.637ZM828.637 726.194V772.854H829.429V726.194H828.637ZM829.429 250.936V218.119H828.637V250.936H829.429ZM828.637 867.745V868.537H829.429V867.745H828.637ZM828.637 820.297V821.089H829.429V820.297H828.637ZM828.637 772.854V773.642H829.429V772.854H828.637ZM828.637 725.407V726.194H829.429V725.407H828.637ZM828.637 677.959V678.751H829.429V677.959H828.637ZM828.637 630.511V631.304H829.429V630.511H828.637ZM828.637 583.064V583.856H829.429V583.064H828.637ZM829.429 536.408V535.616H828.637V536.408H829.429ZM829.429 488.961V488.169H828.637V488.961H829.429ZM829.429 441.513V440.721H828.637V441.513H829.429ZM829.429 394.066V393.274H828.637V394.066H829.429ZM829.429 346.618V345.831H828.637V346.618H829.429ZM829.429 299.171V298.383H828.637V299.171H829.429ZM829.429 251.728V250.936H828.637V251.728H829.429ZM876.084 773.642V820.297H876.876V773.642H876.084ZM876.876 298.383V251.728H876.084V298.383H876.876ZM876.876 535.616V488.961H876.084V535.616H876.876ZM876.084 868.537V901.354H876.876V868.537H876.084ZM876.084 678.751V725.407H876.876V678.751H876.084ZM876.876 345.831V299.171H876.084V345.831H876.876ZM876.876 250.936V218.119H876.084V250.936H876.876ZM876.084 726.194V772.854H876.876V726.194H876.084ZM876.876 440.721V394.066H876.084V440.721H876.876ZM876.084 583.856V630.511H876.876V583.856H876.084ZM876.876 488.169V441.513H876.084V488.169H876.876ZM876.084 536.408V583.064H876.876V536.408H876.084ZM876.084 821.089V867.745H876.876V821.089H876.084ZM876.084 631.304V677.959H876.876V631.304H876.084ZM876.876 393.274V346.618H876.084V393.274H876.876ZM876.084 867.745V868.537H876.876V867.745H876.084ZM876.084 820.297V821.089H876.876V820.297H876.084ZM876.084 772.854V773.642H876.876V772.854H876.084ZM876.084 725.407V726.194H876.876V725.407H876.084ZM876.084 677.959V678.751H876.876V677.959H876.084ZM876.084 630.511V631.304H876.876V630.511H876.084ZM876.084 583.064V583.856H876.876V583.064H876.084ZM876.876 536.408V535.616H876.084V536.408H876.876ZM876.876 488.961V488.169H876.084V488.961H876.876ZM876.876 441.513V440.721H876.084V441.513H876.876ZM876.876 394.066V393.274H876.084V394.066H876.876ZM876.876 346.618V345.831H876.084V346.618H876.876ZM876.876 299.171V298.383H876.084V299.171H876.876ZM876.876 251.728V250.936H876.084V251.728H876.876ZM924.324 345.831V299.171H923.532V345.831H924.324ZM923.532 536.408V583.064H924.324V536.408H923.532ZM923.532 773.642V820.297H924.324V773.642H923.532ZM923.532 583.856V630.511H924.324V583.856H923.532ZM923.532 678.751V725.407H924.324V678.751H923.532ZM924.324 440.721V394.066H923.532V440.721H924.324ZM924.324 488.169V441.513H923.532V488.169H924.324ZM923.532 631.304V677.959H924.324V631.304H923.532ZM924.324 393.274V346.618H923.532V393.274H924.324ZM923.532 726.194V772.854H924.324V726.194H923.532ZM924.324 535.616V488.961H923.532V535.616H924.324ZM924.324 298.383V251.728H923.532V298.383H924.324ZM923.532 821.089V867.745H924.324V821.089H923.532ZM923.532 868.537V901.354H924.324V868.537H923.532ZM924.324 250.936V218.119H923.532V250.936H924.324ZM923.532 867.745V868.537H924.324V867.745H923.532ZM923.532 820.297V821.089H924.324V820.297H923.532ZM923.532 772.854V773.642H924.324V772.854H923.532ZM923.532 725.407V726.194H924.324V725.407H923.532ZM923.532 677.959V678.751H924.324V677.959H923.532ZM923.532 630.511V631.304H924.324V630.511H923.532ZM923.532 583.064V583.856H924.324V583.064H923.532ZM924.324 536.408V535.616H923.532V536.408H924.324ZM924.324 488.961V488.169H923.532V488.961H924.324ZM924.324 441.513V440.721H923.532V441.513H924.324ZM924.324 394.066V393.274H923.532V394.066H924.324ZM924.324 346.618V345.831H923.532V346.618H924.324ZM924.324 299.171V298.383H923.532V299.171H924.324ZM924.324 251.728V250.936H923.532V251.728H924.324ZM970.979 583.064H971.767V536.408H970.979V583.064ZM970.979 821.089V867.745H971.767V821.089H970.979ZM971.767 440.721V394.066H970.979V440.721H971.767ZM970.979 631.304V677.959H971.767V631.304H970.979ZM970.979 868.537V901.354H971.767V868.537H970.979ZM971.767 298.383V251.728H970.979V298.383H971.767ZM971.767 345.831V299.171H970.979V345.831H971.767ZM970.979 726.194V772.854H971.767V726.194H970.979ZM970.979 583.856V630.511H971.767V583.856H970.979ZM970.979 773.642V820.297H971.767V773.642H970.979ZM971.767 250.936V218.119H970.979V250.936H971.767ZM971.767 535.616V488.961H970.979V535.616H971.767ZM971.767 393.274V346.618H970.979V393.274H971.767ZM971.767 488.169V441.513H970.979V488.169H971.767ZM970.979 678.751V725.407H971.767V678.751H970.979ZM970.979 867.745V868.537H971.767V867.745H970.979ZM970.979 820.297V821.089H971.767V820.297H970.979ZM970.979 772.854V773.642H971.767V772.854H970.979ZM970.979 725.407V726.194H971.767V725.407H970.979ZM970.979 677.959V678.751H971.767V677.959H970.979ZM970.979 630.511V631.304H971.767V630.511H970.979ZM970.979 583.064V583.856H971.767V583.064H970.979ZM971.767 536.408V535.616H970.979V536.408H971.767ZM971.767 488.961V488.169H970.979V488.961H971.767ZM971.767 441.513V440.721H970.979V441.513H971.767ZM971.767 394.066V393.274H970.979V394.066H971.767ZM971.767 346.618V345.831H970.979V346.618H971.767ZM971.767 299.171V298.383H970.979V299.171H971.767ZM971.767 251.728V250.936H970.979V251.728H971.767ZM1019.21 298.383V251.728H1018.43V298.383H1019.21ZM1019.21 345.831V299.171H1018.43V345.831H1019.21ZM1018.43 678.751V725.407H1019.21V678.751H1018.43ZM1018.43 535.616H1019.21V488.961H1018.43V535.616ZM1018.43 868.537V901.354H1019.21V868.537H1018.43ZM1019.21 250.936V218.119H1018.43V250.936H1019.21ZM1018.43 583.856V630.511H1019.21V583.856H1018.43ZM1018.43 631.304V677.959H1019.21V631.304H1018.43ZM1018.43 773.642V820.297H1019.21V773.642H1018.43ZM1018.43 726.194V772.854H1019.21V726.194H1018.43ZM1019.21 393.274V346.618H1018.43V393.274H1019.21ZM1018.43 583.064H1019.21V536.408H1018.43V583.064ZM1019.21 488.169V441.513H1018.43V488.169H1019.21ZM1019.21 440.721V394.066H1018.43V440.721H1019.21ZM1018.43 821.089V867.745H1019.21V821.089H1018.43ZM1018.43 867.745V868.537H1019.21V867.745H1018.43ZM1018.43 820.297V821.089H1019.21V820.297H1018.43ZM1018.43 772.854V773.642H1019.21V772.854H1018.43ZM1018.43 725.407V726.194H1019.21V725.407H1018.43ZM1018.43 677.959V678.751H1019.21V677.959H1018.43ZM1018.43 630.511V631.304H1019.21V630.511H1018.43ZM1018.43 583.856H1019.21V583.064H1018.43V583.856ZM1019.21 536.408V535.616H1018.43V536.408H1019.21ZM1019.21 488.961V488.169H1018.43V488.961H1019.21ZM1019.21 441.513V440.721H1018.43V441.513H1019.21ZM1019.21 394.066V393.274H1018.43V394.066H1019.21ZM1019.21 346.618V345.831H1018.43V346.618H1019.21ZM1019.21 299.171V298.383H1018.43V299.171H1019.21ZM1019.21 251.728V250.936H1018.43V251.728H1019.21ZM1066.66 393.274V346.618H1065.87V393.274H1066.66ZM1066.66 250.936V218.119H1065.87V250.936H1066.66ZM1065.87 773.642V820.297H1066.66V773.642H1065.87ZM1065.87 726.194V772.854H1066.66V726.194H1065.87ZM1065.87 583.064H1066.66V536.408H1065.87V583.064ZM1065.87 821.089V867.745H1066.66V821.089H1065.87ZM1066.66 298.383V251.728H1065.87V298.383H1066.66ZM1065.87 630.511H1066.66V583.856H1065.87V630.511ZM1066.66 440.721V394.066H1065.87V440.721H1066.66ZM1065.87 535.616H1066.66V488.961H1065.87V535.616ZM1066.66 345.831V299.171H1065.87V345.831H1066.66ZM1065.87 631.304V677.959H1066.66V631.304H1065.87ZM1065.87 488.169H1066.66V441.513H1065.87V488.169ZM1065.87 868.537V901.354H1066.66V868.537H1065.87ZM1065.87 678.751V725.407H1066.66V678.751H1065.87ZM1065.87 867.745V868.537H1066.66V867.745H1065.87ZM1065.87 820.297V821.089H1066.66V820.297H1065.87ZM1065.87 772.854V773.642H1066.66V772.854H1065.87ZM1065.87 725.407V726.194H1066.66V725.407H1065.87ZM1065.87 677.959V678.751H1066.66V677.959H1065.87ZM1065.87 631.304H1066.66V630.511H1065.87V631.304ZM1065.87 583.856H1066.66V583.064H1065.87V583.856ZM1065.87 536.408H1066.66V535.616H1065.87V536.408ZM1066.66 488.961V488.169H1065.87V488.961H1066.66ZM1066.66 441.513V440.721H1065.87V441.513H1066.66ZM1066.66 394.066V393.274H1065.87V394.066H1066.66ZM1066.66 346.618V345.831H1065.87V346.618H1066.66ZM1066.66 299.171V298.383H1065.87V299.171H1066.66ZM1066.66 251.728V250.936H1065.87V251.728H1066.66ZM1113.32 868.537V901.354H1114.11V868.537H1113.32ZM1114.11 393.274V346.618H1113.32V393.274H1114.11ZM1113.32 440.721H1114.11V394.066H1113.32V440.721ZM1114.11 345.831V299.171H1113.32V345.831H1114.11ZM1113.32 678.751V725.407H1114.11V678.751H1113.32ZM1114.11 250.936V218.119H1113.32V250.936H1114.11ZM1113.32 583.064H1114.11V536.408H1113.32V583.064ZM1113.32 535.616H1114.11V488.961H1113.32V535.616ZM1113.32 773.642V820.297H1114.11V773.642H1113.32ZM1113.32 630.511H1114.11V583.856H1113.32V630.511ZM1113.32 488.169H1114.11V441.513H1113.32V488.169ZM1113.32 821.089V867.745H1114.11V821.089H1113.32ZM1114.11 298.383V251.728H1113.32V298.383H1114.11ZM1113.32 726.194V772.854H1114.11V726.194H1113.32ZM1113.32 677.959H1114.11V631.304H1113.32V677.959ZM1113.32 867.745V868.537H1114.11V867.745H1113.32ZM1113.32 820.297V821.089H1114.11V820.297H1113.32ZM1113.32 772.854V773.642H1114.11V772.854H1113.32ZM1113.32 725.407V726.194H1114.11V725.407H1113.32ZM1113.32 678.751H1114.11V677.959H1113.32V678.751ZM1113.32 631.304H1114.11V630.511H1113.32V631.304ZM1113.32 583.856H1114.11V583.064H1113.32V583.856ZM1113.32 536.408H1114.11V535.616H1113.32V536.408ZM1113.32 488.961H1114.11V488.169H1113.32V488.961ZM1114.11 441.513V440.721H1113.32V441.513H1114.11ZM1114.11 394.066V393.274H1113.32V394.066H1114.11ZM1114.11 346.618V345.831H1113.32V346.618H1114.11ZM1114.11 299.171V298.383H1113.32V299.171H1114.11ZM1114.11 251.728V250.936H1113.32V251.728H1114.11ZM1160.77 630.511H1161.56V583.856H1160.77V630.511ZM1160.77 821.089V867.745H1161.56V821.089H1160.77ZM1160.77 535.616H1161.56V488.961H1160.77V535.616ZM1160.77 677.959H1161.56V631.304H1160.77V677.959ZM1160.77 440.721H1161.56V394.066H1160.77V440.721ZM1161.56 298.383V251.728H1160.77V298.383H1161.56ZM1160.77 583.064H1161.56V536.408H1160.77V583.064ZM1161.56 345.831V299.171H1160.77V345.831H1161.56ZM1160.77 868.537V901.354H1161.56V868.537H1160.77ZM1160.77 725.407H1161.56V678.751H1160.77V725.407ZM1160.77 726.194V772.854H1161.56V726.194H1160.77ZM1161.56 250.936V218.119H1160.77V250.936H1161.56ZM1160.77 488.169H1161.56V441.513H1160.77V488.169ZM1160.77 393.274H1161.56V346.618H1160.77V393.274ZM1160.77 773.642V820.297H1161.56V773.642H1160.77ZM1160.77 867.745V868.537H1161.56V867.745H1160.77ZM1160.77 820.297V821.089H1161.56V820.297H1160.77ZM1160.77 772.854V773.642H1161.56V772.854H1160.77ZM1160.77 726.194H1161.56V725.407H1160.77V726.194ZM1160.77 678.751H1161.56V677.959H1160.77V678.751ZM1160.77 631.304H1161.56V630.511H1160.77V631.304ZM1160.77 583.856H1161.56V583.064H1160.77V583.856ZM1160.77 536.408H1161.56V535.616H1160.77V536.408ZM1160.77 488.961H1161.56V488.169H1160.77V488.961ZM1160.77 441.513H1161.56V440.721H1160.77V441.513ZM1161.56 394.066V393.274H1160.77V394.066H1161.56ZM1161.56 346.618V345.831H1160.77V346.618H1161.56ZM1161.56 299.171V298.383H1160.77V299.171H1161.56ZM1161.56 251.728V250.936H1160.77V251.728H1161.56ZM1208.21 630.511H1209V583.856H1208.21V630.511ZM1208.21 583.064H1209V536.408H1208.21V583.064ZM1208.21 535.616H1209V488.961H1208.21V535.616ZM1208.21 868.537V901.354H1209V868.537H1208.21ZM1208.21 821.089V867.745H1209V821.089H1208.21ZM1208.21 440.721H1209V394.066H1208.21V440.721ZM1208.21 677.959H1209V631.304H1208.21V677.959ZM1209 250.936V218.119H1208.21V250.936H1209ZM1209 298.383V251.728H1208.21V298.383H1209ZM1208.21 725.407H1209V678.751H1208.21V725.407ZM1208.21 772.854H1209V726.194H1208.21V772.854ZM1208.21 393.274H1209V346.618H1208.21V393.274ZM1208.21 345.831H1209V299.171H1208.21V345.831ZM1208.21 488.169H1209V441.513H1208.21V488.169ZM1208.21 773.642V820.297H1209V773.642H1208.21ZM1208.21 867.745V868.537H1209V867.745H1208.21ZM1208.21 820.297V821.089H1209V820.297H1208.21ZM1208.21 773.642H1209V772.854H1208.21V773.642ZM1208.21 726.194H1209V725.407H1208.21V726.194ZM1208.21 678.751H1209V677.959H1208.21V678.751ZM1208.21 631.304H1209V630.511H1208.21V631.304ZM1208.21 583.856H1209V583.064H1208.21V583.856ZM1208.21 536.408H1209V535.616H1208.21V536.408ZM1208.21 488.961H1209V488.169H1208.21V488.961ZM1208.21 441.513H1209V440.721H1208.21V441.513ZM1208.21 394.066H1209V393.274H1208.21V394.066ZM1209 346.618V345.831H1208.21V346.618H1209ZM1209 299.171V298.383H1208.21V299.171H1209ZM1209 251.728V250.936H1208.21V251.728H1209ZM1255.66 440.721H1256.45V394.066H1255.66V440.721ZM1255.66 488.169H1256.45V441.513H1255.66V488.169ZM1255.66 535.616H1256.45V488.961H1255.66V535.616ZM1256.45 250.936V218.119H1255.66V250.936H1256.45ZM1255.66 630.511H1256.45V583.856H1255.66V630.511ZM1255.66 868.537V901.354H1256.45V868.537H1255.66ZM1255.66 298.383H1256.45V251.728H1255.66V298.383ZM1255.66 821.089V867.745H1256.45V821.089H1255.66ZM1255.66 393.274H1256.45V346.618H1255.66V393.274ZM1255.66 345.831H1256.45V299.171H1255.66V345.831ZM1255.66 583.064H1256.45V536.408H1255.66V583.064ZM1255.66 725.407H1256.45V678.751H1255.66V725.407ZM1255.66 677.959H1256.45V631.304H1255.66V677.959ZM1255.66 772.854H1256.45V726.194H1255.66V772.854ZM1255.66 820.297H1256.45V773.642H1255.66V820.297ZM1255.66 867.745V868.537H1256.45V867.745H1255.66ZM1255.66 821.089H1256.45V820.297H1255.66V821.089ZM1255.66 773.642H1256.45V772.854H1255.66V773.642ZM1255.66 726.194H1256.45V725.407H1255.66V726.194ZM1255.66 678.751H1256.45V677.959H1255.66V678.751ZM1255.66 631.304H1256.45V630.511H1255.66V631.304ZM1255.66 583.856H1256.45V583.064H1255.66V583.856ZM1255.66 536.408H1256.45V535.616H1255.66V536.408ZM1255.66 488.961H1256.45V488.169H1255.66V488.961ZM1255.66 441.513H1256.45V440.721H1255.66V441.513ZM1255.66 394.066H1256.45V393.274H1255.66V394.066ZM1255.66 346.618H1256.45V345.831H1255.66V346.618ZM1256.45 299.171V298.383H1255.66V299.171H1256.45ZM1256.45 251.728V250.936H1255.66V251.728H1256.45ZM1303.11 820.297H1303.9V773.642H1303.11V820.297ZM1303.11 440.726H1303.9V394.07H1303.11V440.726ZM1303.11 393.278H1303.9V346.623H1303.11V393.278ZM1303.11 298.383H1303.9V251.728H1303.11V298.383ZM1303.11 250.936H1303.9V218.119H1303.11V250.936ZM1303.11 868.537V900.652C1303.37 900.605 1303.64 900.566 1303.9 900.51V868.537H1303.11ZM1303.11 772.854H1303.9V726.194H1303.11V772.854ZM1303.11 867.745H1303.9V821.089H1303.11V867.745ZM1303.11 630.511H1303.9V583.856H1303.11V630.511ZM1303.11 488.169H1303.9V441.513H1303.11V488.169ZM1303.11 583.064H1303.9V536.408H1303.11V583.064ZM1303.11 677.959H1303.9V631.304H1303.11V677.959ZM1303.11 535.616H1303.9V488.961H1303.11V535.616ZM1303.11 725.407H1303.9V678.751H1303.11V725.407ZM1303.11 345.831H1303.9V299.175H1303.11V345.831ZM1303.11 868.537H1303.9V867.745H1303.11V868.537ZM1303.11 821.089H1303.9V820.297H1303.11V821.089ZM1303.11 773.642H1303.9V772.854H1303.11V773.642ZM1303.11 726.194H1303.9V725.407H1303.11V726.194ZM1303.11 678.751H1303.9V677.959H1303.11V678.751ZM1303.11 631.304H1303.9V630.511H1303.11V631.304ZM1303.11 583.856H1303.9V583.064H1303.11V583.856ZM1303.11 536.408H1303.9V535.616H1303.11V536.408ZM1303.11 488.961H1303.9V488.169H1303.11V488.961ZM1303.11 441.513H1303.9V440.726H1303.11V441.513ZM1303.11 394.07H1303.9V393.278H1303.11V394.07ZM1303.11 346.623H1303.9V345.831H1303.11V346.623ZM1303.11 299.175H1303.9V298.383H1303.11V299.175ZM1303.9 251.728V250.936H1303.11V251.728H1303.9Z" fill="#918F8D"/>
</g>
</g>
</g>
<mask id="mask3_23_1710" style="mask-type:luminance" maskUnits="userSpaceOnUse" x="77" y="129" width="1286" height="799">
<path d="M77.7927 129.319H1362.09V927.666H77.7927V129.319Z" fill="white"/>
</mask>
<g mask="url(#mask3_23_1710)">
<path d="M1227.03 175.643V183.442H1219.23V175.643H1227.03ZM1233.27 169.401H1212.99V189.68H1233.27V169.401ZM1187.82 189.68H1167.54V183.442H1187.82V189.68ZM1273.27 179.543L1279.57 185.849L1275.16 190.261L1268.85 183.955L1262.55 190.261L1258.14 185.849L1264.44 179.543L1258.14 173.237L1262.55 168.825L1268.85 175.131L1275.16 168.825L1279.57 173.237L1273.27 179.543ZM1337.39 154.594C1329.38 139.727 1313.67 129.62 1295.59 129.62H125.24C99.0307 129.62 77.7927 150.862 77.7927 177.068V860.233C77.7927 878.308 87.8995 894.019 102.767 902.029C110.782 916.875 126.467 926.969 144.524 926.969H1314.88C1341.09 926.969 1362.33 905.727 1362.33 879.521V196.356C1362.33 178.299 1352.23 162.613 1337.39 154.594ZM90.4434 177.068C90.4434 157.883 106.051 142.271 125.24 142.271H1295.59C1314.78 142.271 1330.39 157.883 1330.39 177.068V211.791H90.4434V177.068ZM90.4434 860.233V224.515H1330.39V860.233C1330.39 879.418 1314.78 895.026 1295.59 895.026H125.24C106.051 895.026 90.4434 879.418 90.4434 860.233Z" fill="#272324"/>
</g>
</svg>
